<svg width="28" height="28" viewBox="0 0 28 28" fill="none" xmlns="http://www.w3.org/2000/svg">
<path d="M18.8897 3.93848C16.8761 3.93848 15.0738 4.91748 13.9502 6.41935C13.3763 5.65041 12.6311 5.02582 11.7736 4.59518C10.9162 4.16453 9.97019 3.93968 9.01069 3.93848C5.59532 3.93848 2.8252 6.71973 2.8252 10.1574C2.8252 11.4812 3.03657 12.705 3.4037 13.8397C5.16145 19.4022 10.5793 22.7286 13.2604 23.6409C13.6387 23.7744 14.2617 23.7744 14.6399 23.6409C17.3211 22.7286 22.7389 19.4022 24.4967 13.8397C24.8638 12.705 25.0752 11.4812 25.0752 10.1574C25.0752 6.71973 22.3051 3.93848 18.8897 3.93848Z" fill="#AA2121"/>
</svg>
