<svg width="28" height="28" viewBox="0 0 28 28" fill="none" xmlns="http://www.w3.org/2000/svg">
<path d="M25.0415 20.9854V22.0979C25.0415 23.9335 25.0415 25.4354 21.704 25.4354H6.129C2.7915 25.4354 2.7915 23.9335 2.7915 22.0979V20.9854C2.7915 20.3736 3.29213 19.8729 3.904 19.8729H23.929C24.5409 19.8729 25.0415 20.3736 25.0415 20.9854ZM16.631 6.72317C16.6866 6.50067 16.72 6.2893 16.7311 6.05567C16.7645 4.76517 15.9746 3.63042 14.7286 3.29667C14.2518 3.15883 13.7468 3.15079 13.2658 3.27339C12.7848 3.39598 12.3453 3.64477 11.9926 3.99405C11.6399 4.34332 11.3869 4.78042 11.2596 5.2602C11.1324 5.73997 11.1355 6.24502 11.2688 6.72317C9.27874 7.15082 7.4954 8.24758 6.21599 9.83066C4.93657 11.4137 4.23837 13.3875 4.23775 15.4229V17.0917C4.23775 17.7036 4.73838 18.2042 5.35025 18.2042H22.5384C23.1503 18.2042 23.6509 17.7036 23.6509 17.0917V15.4229C23.6509 11.1509 20.6471 7.59092 16.631 6.72317ZM17.2874 14.0323H10.6124C10.1563 14.0323 9.778 13.654 9.778 13.1979C9.778 12.7418 10.1563 12.3636 10.6124 12.3636H17.2874C17.7435 12.3636 18.1218 12.7418 18.1218 13.1979C18.1218 13.654 17.7435 14.0323 17.2874 14.0323Z" fill="#AA2121"/>
</svg>
